<?xml version="1.0" encoding="UTF-8"?>
<svg id="uuid-add2e79c-0a64-4cce-bc0d-5625a1c8dc02" data-name="katman 2" xmlns="http://www.w3.org/2000/svg" viewBox="0 0 158.05 34.93">
  <g id="uuid-ee41ff37-640b-41a4-a827-4d8fe6e0857a" data-name="Facebook">
    <g id="uuid-85be96dd-24c0-473f-87a0-49aa487081d9" data-name="Background">
      <path id="uuid-431e6b27-7e86-4437-9ac7-5a8097da7557" data-name="Dark" d="m34.57,0h123.48v34.9H34.57V0Z" style="fill: #1977cc;"/>
      <path id="uuid-3477bb8e-9b59-4589-8f9d-ee47e4f6f112" data-name="Light" d="m0,.03h110.93v34.9H0V.03Z" style="fill: #1877f2;"/>
    </g>
    <text id="uuid-2002e137-abed-4da8-819b-8cadc80afbf6" data-name="Text" transform="translate(5.74 22.24)" style="fill: #fff; font-family: TitilliumWeb-ExtraLight, &apos;Titillium Web&apos;; font-size: 16px; font-weight: 200;"><tspan x="0" y="0" style="letter-spacing: .03em;">F</tspan><tspan x="8.82" y="0" style="letter-spacing: .06em;">A</tspan><tspan x="19.18" y="0" style="letter-spacing: .07em;">CEBOOK</tspan></text>
    <path id="uuid-ffb57157-dc6e-4659-b74f-3bfea38862de" data-name="Icon" d="m136.48,4.13c-6.9,0-12.5,5.61-12.5,12.52,0,6.27,4.62,11.46,10.63,12.37l.65.1v-9.87h-2.95v-2h2.95v-2.66c0-1.64.39-2.72,1.04-3.39s1.61-1.02,2.95-1.02c1.07,0,1.48.06,1.88.11v1.64h-1.39c-.79,0-1.44.44-1.77,1.03-.34.59-.44,1.29-.44,2v2.29h3.48l-.31,2h-3.17v9.88l.64-.09c6.1-.83,10.81-6.06,10.81-12.39,0-6.91-5.6-12.52-12.5-12.52Zm0,1.14c6.28,0,11.36,5.09,11.36,11.38,0,5.54-3.96,10.09-9.18,11.12v-7.38h3.01l.66-4.28h-3.67v-1.15c0-.59.11-1.12.29-1.44.18-.32.36-.46.79-.46h2.53v-3.81l-.49-.07c-.34-.05-1.12-.15-2.52-.15-1.54,0-2.85.42-3.76,1.37-.91.95-1.36,2.36-1.36,4.18v1.52h-2.95v4.28h2.95v7.34c-5.14-1.09-9.01-5.6-9.01-11.08,0-6.29,5.08-11.38,11.36-11.38Z" style="fill: #fff;"/>
  </g>
</svg>