<?xml version="1.0" encoding="UTF-8"?>
<svg id="katman_2" data-name="katman 2" xmlns="http://www.w3.org/2000/svg" viewBox="0 0 158.05 34.93">
  <defs>
    <style>
      .cls-1, .cls-2 {
        fill: #fff;
      }

      .cls-3 {
        fill: #1977cc;
      }

      .cls-4 {
        letter-spacing: .07em;
      }

      .cls-5 {
        letter-spacing: .06em;
      }

      .cls-6 {
        fill: #1877f2;
      }

      .cls-2 {
        font-family: TitilliumWeb-ExtraLight, 'Titillium Web';
        font-size: 16px;
        font-weight: 200;
      }

      .cls-7 {
        letter-spacing: .03em;
      }
    </style>
  </defs>
  <g id="Facebook">
    <g id="Background">
      <path id="Dark" class="cls-3" d="m34.57,0h123.48v34.9H34.57V0Z"/>
      <path id="Light" class="cls-6" d="m0,.03h110.93v34.9H0V.03Z"/>
    </g>
    <text id="Text" class="cls-2" transform="translate(5.74 22.24)"><tspan class="cls-7" x="0" y="0">F</tspan><tspan class="cls-5" x="8.82" y="0">A</tspan><tspan class="cls-4" x="19.18" y="0">CEBOOK</tspan></text>
    <path id="Icon" class="cls-1" d="m136.48,4.13c-6.9,0-12.5,5.61-12.5,12.52,0,6.27,4.62,11.46,10.63,12.37l.65.1v-9.87h-2.95v-2h2.95v-2.66c0-1.64.39-2.72,1.04-3.39s1.61-1.02,2.95-1.02c1.07,0,1.48.06,1.88.11v1.64h-1.39c-.79,0-1.44.44-1.77,1.03-.34.59-.44,1.29-.44,2v2.29h3.48l-.31,2h-3.17v9.88l.64-.09c6.1-.83,10.81-6.06,10.81-12.39,0-6.91-5.6-12.52-12.5-12.52Zm0,1.14c6.28,0,11.36,5.09,11.36,11.38,0,5.54-3.96,10.09-9.18,11.12v-7.38h3.01l.66-4.28h-3.67v-1.15c0-.59.11-1.12.29-1.44.18-.32.36-.46.79-.46h2.53v-3.81l-.49-.07c-.34-.05-1.12-.15-2.52-.15-1.54,0-2.85.42-3.76,1.37-.91.95-1.36,2.36-1.36,4.18v1.52h-2.95v4.28h2.95v7.34c-5.14-1.09-9.01-5.6-9.01-11.08,0-6.29,5.08-11.38,11.36-11.38Z"/>
  </g>
</svg>