<svg xmlns="http://www.w3.org/2000/svg" width="138.4" height="35" viewBox="0 0 138.4 35"><rect class="svg__rect" x="0" y="0" width="85.07000000000001" height="35" fill="#9B59B6"/><rect class="svg__rect" x="83.07000000000001" y="0" width="55.33" height="35" fill="#8E44AD"/><path class="svg__text" d="M19.80 22L14.22 22L14.22 13.47L19.75 13.47L19.75 14.66L15.70 14.66L15.70 17.02L19.20 17.02L19.20 18.19L15.70 18.19L15.70 20.82L19.80 20.82L19.80 22ZM25.09 22L23.36 22L26.01 17.70L23.42 13.47L25.13 13.47L26.93 16.55L28.72 13.47L30.43 13.47L27.85 17.70L30.49 22L28.76 22L26.93 18.87L25.09 22ZM36.06 22L34.57 22L34.57 13.47L37.84 13.47Q39.27 13.47 40.11 14.21Q40.95 14.96 40.95 16.18L40.95 16.18Q40.95 17.44 40.12 18.13Q39.30 18.83 37.82 18.83L37.82 18.83L36.06 18.83L36.06 22ZM36.06 14.66L36.06 17.64L37.84 17.64Q38.63 17.64 39.04 17.27Q39.46 16.90 39.46 16.19L39.46 16.19Q39.46 15.50 39.04 15.09Q38.62 14.68 37.88 14.66L37.88 14.66L36.06 14.66ZM50.81 22L45.23 22L45.23 13.47L50.77 13.47L50.77 14.66L46.71 14.66L46.71 17.02L50.22 17.02L50.22 18.19L46.71 18.19L46.71 20.82L50.81 20.82L50.81 22ZM56.49 22L55.00 22L55.00 13.47L58.00 13.47Q59.48 13.47 60.28 14.13Q61.09 14.79 61.09 16.05L61.09 16.05Q61.09 16.90 60.67 17.48Q60.26 18.06 59.52 18.37L59.52 18.37L61.44 21.92L61.44 22L59.85 22L58.14 18.71L56.49 18.71L56.49 22ZM56.49 14.66L56.49 17.52L58.01 17.52Q58.76 17.52 59.18 17.15Q59.60 16.77 59.60 16.11L59.60 16.11Q59.60 15.43 59.21 15.05Q58.82 14.68 58.05 14.66L58.05 14.66L56.49 14.66ZM67.16 14.66L64.53 14.66L64.53 13.47L71.29 13.47L71.29 14.66L68.63 14.66L68.63 22L67.16 22L67.16 14.66Z" fill="#FFFFFF"/><path class="svg__text" d="M96.83 17.80L96.83 17.80Q96.83 16.54 97.43 15.54Q98.03 14.55 99.08 13.99Q100.13 13.43 101.45 13.43L101.45 13.43Q102.60 13.43 103.52 13.84Q104.45 14.25 105.06 15.02L105.06 15.02L103.55 16.39Q102.74 15.40 101.57 15.40L101.57 15.40Q100.88 15.40 100.35 15.70Q99.82 16 99.52 16.54Q99.23 17.09 99.23 17.80L99.23 17.80Q99.23 18.51 99.52 19.05Q99.82 19.60 100.35 19.90Q100.88 20.20 101.57 20.20L101.57 20.20Q102.74 20.20 103.55 19.22L103.55 19.22L105.06 20.58Q104.45 21.35 103.53 21.76Q102.60 22.17 101.45 22.17L101.45 22.17Q100.13 22.17 99.08 21.61Q98.03 21.05 97.43 20.05Q96.83 19.06 96.83 17.80ZM111.50 18.68L109.46 18.68L109.46 16.93L111.50 16.93L111.50 14.95L113.34 14.95L113.34 16.93L115.37 16.93L115.37 18.68L113.34 18.68L113.34 20.66L111.50 20.66L111.50 18.68ZM122.29 18.68L120.25 18.68L120.25 16.93L122.29 16.93L122.29 14.95L124.13 14.95L124.13 16.93L126.16 16.93L126.16 18.68L124.13 18.68L124.13 20.66L122.29 20.66L122.29 18.68Z" fill="#FFFFFF" x="96.07000000000001"/></svg>