<svg xmlns="http://www.w3.org/2000/svg" width="142.13" height="35" viewBox="0 0 142.13 35"><rect class="svg__rect" x="0" y="0" width="85.07000000000001" height="35" fill="#2ECC71"/><rect class="svg__rect" x="83.07000000000001" y="0" width="59.05999999999999" height="35" fill="#27AE60"/><path class="svg__text" d="M19.80 22L14.22 22L14.22 13.47L19.75 13.47L19.75 14.66L15.70 14.66L15.70 17.02L19.20 17.02L19.20 18.19L15.70 18.19L15.70 20.82L19.80 20.82L19.80 22ZM25.09 22L23.36 22L26.01 17.70L23.42 13.47L25.13 13.47L26.93 16.55L28.72 13.47L30.43 13.47L27.85 17.70L30.49 22L28.76 22L26.93 18.87L25.09 22ZM36.06 22L34.57 22L34.57 13.47L37.84 13.47Q39.27 13.47 40.11 14.21Q40.95 14.96 40.95 16.18L40.95 16.18Q40.95 17.44 40.12 18.13Q39.30 18.83 37.82 18.83L37.82 18.83L36.06 18.83L36.06 22ZM36.06 14.66L36.06 17.64L37.84 17.64Q38.63 17.64 39.04 17.27Q39.46 16.90 39.46 16.19L39.46 16.19Q39.46 15.50 39.04 15.09Q38.62 14.68 37.88 14.66L37.88 14.66L36.06 14.66ZM50.81 22L45.23 22L45.23 13.47L50.77 13.47L50.77 14.66L46.71 14.66L46.71 17.02L50.22 17.02L50.22 18.19L46.71 18.19L46.71 20.82L50.81 20.82L50.81 22ZM56.49 22L55.00 22L55.00 13.47L58.00 13.47Q59.48 13.47 60.28 14.13Q61.09 14.79 61.09 16.05L61.09 16.05Q61.09 16.90 60.67 17.48Q60.26 18.06 59.52 18.37L59.52 18.37L61.44 21.92L61.44 22L59.85 22L58.14 18.71L56.49 18.71L56.49 22ZM56.49 14.66L56.49 17.52L58.01 17.52Q58.76 17.52 59.18 17.15Q59.60 16.77 59.60 16.11L59.60 16.11Q59.60 15.43 59.21 15.05Q58.82 14.68 58.05 14.66L58.05 14.66L56.49 14.66ZM67.16 14.66L64.53 14.66L64.53 13.47L71.29 13.47L71.29 14.66L68.63 14.66L68.63 22L67.16 22L67.16 14.66Z" fill="#FFFFFF"/><path class="svg__text" d="M99.64 22L97.26 22L97.26 13.60L101.10 13.60Q102.24 13.60 103.08 13.98Q103.92 14.35 104.38 15.06Q104.83 15.76 104.83 16.71L104.83 16.71Q104.83 17.66 104.38 18.35Q103.92 19.05 103.08 19.42Q102.24 19.80 101.10 19.80L101.10 19.80L99.64 19.80L99.64 22ZM99.64 15.47L99.64 17.93L100.96 17.93Q101.69 17.93 102.06 17.61Q102.43 17.29 102.43 16.71L102.43 16.71Q102.43 16.12 102.06 15.80Q101.69 15.47 100.96 15.47L100.96 15.47L99.64 15.47ZM111.96 22L109.59 22L109.59 13.60L111.96 13.60L111.96 16.76L115.21 16.76L115.21 13.60L117.58 13.60L117.58 22L115.21 22L115.21 18.72L111.96 18.72L111.96 22ZM125.12 22L122.74 22L122.74 13.60L126.58 13.60Q127.72 13.60 128.56 13.98Q129.40 14.35 129.86 15.06Q130.32 15.76 130.32 16.71L130.32 16.71Q130.32 17.66 129.86 18.35Q129.40 19.05 128.56 19.42Q127.72 19.80 126.58 19.80L126.58 19.80L125.12 19.80L125.12 22ZM125.12 15.47L125.12 17.93L126.44 17.93Q127.17 17.93 127.54 17.61Q127.91 17.29 127.91 16.71L127.91 16.71Q127.91 16.12 127.54 15.80Q127.17 15.47 126.44 15.47L126.44 15.47L125.12 15.47Z" fill="#FFFFFF" x="96.07000000000001"/></svg>