<svg xmlns="http://www.w3.org/2000/svg" width="149.98999999999998" height="35" viewBox="0 0 149.98999999999998 35"><rect class="svg__rect" x="0" y="0" width="33.06" height="35" fill="#99B1B3"/><rect class="svg__rect" x="31.060000000000002" y="0" width="118.92999999999998" height="35" fill="#A7BFC1"/><path class="svg__text" d="M19.16 18.85L14.10 21.03L14.10 19.63L17.72 18.27L14.10 16.94L14.10 15.54L19.16 17.72L19.16 18.85Z" fill="#FFFFFF"/><path class="svg__text" d="M46.67 22L44.24 22L47.95 13.60L50.29 13.60L54.01 22L51.54 22L50.88 20.37L47.33 20.37L46.67 22ZM49.10 15.93L48.02 18.61L50.18 18.61L49.10 15.93ZM62.70 22L58.16 22L58.16 13.60L62.46 13.60Q64.07 13.60 64.91 14.19Q65.75 14.79 65.75 15.79L65.75 15.79Q65.75 16.39 65.45 16.87Q65.16 17.34 64.62 17.62L64.62 17.62Q65.34 17.87 65.75 18.41Q66.15 18.94 66.15 19.70L66.15 19.70Q66.15 20.80 65.27 21.40Q64.38 22 62.70 22L62.70 22ZM60.52 18.58L60.52 20.28L62.51 20.28Q63.76 20.28 63.76 19.43L63.76 19.43Q63.76 18.58 62.51 18.58L62.51 18.58L60.52 18.58ZM60.52 15.31L60.52 16.94L62.15 16.94Q63.35 16.94 63.35 16.12L63.35 16.12Q63.35 15.31 62.15 15.31L62.15 15.31L60.52 15.31ZM70.44 17.80L70.44 17.80Q70.44 16.55 71.05 15.55Q71.65 14.56 72.71 14.00Q73.78 13.43 75.11 13.43L75.11 13.43Q76.44 13.43 77.50 14.00Q78.56 14.56 79.17 15.55Q79.78 16.55 79.78 17.80L79.78 17.80Q79.78 19.05 79.17 20.04Q78.56 21.04 77.50 21.60Q76.44 22.17 75.11 22.17L75.11 22.17Q73.78 22.17 72.71 21.60Q71.65 21.04 71.05 20.04Q70.44 19.05 70.44 17.80ZM72.84 17.80L72.84 17.80Q72.84 18.51 73.14 19.05Q73.44 19.60 73.96 19.90Q74.47 20.20 75.11 20.20L75.11 20.20Q75.75 20.20 76.26 19.90Q76.78 19.60 77.08 19.05Q77.37 18.51 77.37 17.80L77.37 17.80Q77.37 17.09 77.08 16.54Q76.78 16 76.26 15.70Q75.75 15.40 75.11 15.40L75.11 15.40Q74.47 15.40 73.96 15.70Q73.44 16 73.14 16.54Q72.84 17.09 72.84 17.80ZM84.44 18.26L84.44 18.26L84.44 13.60L86.81 13.60L86.81 18.19Q86.81 20.20 88.41 20.20L88.41 20.20Q89.99 20.20 89.99 18.19L89.99 18.19L89.99 13.60L92.33 13.60L92.33 18.26Q92.33 20.13 91.29 21.15Q90.25 22.17 88.38 22.17L88.38 22.17Q86.51 22.17 85.47 21.15Q84.44 20.13 84.44 18.26ZM99.21 15.48L96.63 15.48L96.63 13.60L104.15 13.60L104.15 15.48L101.59 15.48L101.59 22L99.21 22L99.21 15.48ZM117.69 22L115.50 22L115.50 13.60L117.45 13.60L120.41 18.45L123.29 13.60L125.24 13.60L125.26 22L123.08 22L123.06 17.55L120.90 21.17L119.84 21.17L117.69 17.67L117.69 22ZM137.17 22L130.43 22L130.43 13.60L137.02 13.60L137.02 15.44L132.78 15.44L132.78 16.85L136.51 16.85L136.51 18.63L132.78 18.63L132.78 20.17L137.17 20.17L137.17 22Z" fill="#FFFFFF" x="44.06"/></svg>