<svg xmlns="http://www.w3.org/2000/svg" width="208.93" height="35" viewBox="0 0 208.93 35"><rect class="svg__rect" x="0" y="0" width="88.56" height="35" fill="#1877F2"/><rect class="svg__rect" x="86.56" y="0" width="122.37" height="35" fill="#166FE2"/><path class="svg__text" d="M15.70 22L14.22 22L14.22 13.47L19.64 13.47L19.64 14.66L15.70 14.66L15.70 17.20L19.13 17.20L19.13 18.38L15.70 18.38L15.70 22ZM23.53 18.00L23.53 18.00L23.53 17.52Q23.53 16.28 23.97 15.32Q24.41 14.37 25.22 13.86Q26.02 13.35 27.07 13.35Q28.11 13.35 28.92 13.85Q29.72 14.35 30.16 15.29Q30.60 16.23 30.61 17.48L30.61 17.48L30.61 17.96Q30.61 19.21 30.17 20.16Q29.74 21.10 28.93 21.61Q28.13 22.12 27.08 22.12L27.08 22.12Q26.04 22.12 25.23 21.61Q24.42 21.10 23.98 20.17Q23.53 19.23 23.53 18.00ZM25.01 17.46L25.01 17.96Q25.01 19.36 25.56 20.13Q26.11 20.90 27.08 20.90L27.08 20.90Q28.06 20.90 28.59 20.15Q29.12 19.40 29.12 17.96L29.12 17.96L29.12 17.51Q29.12 16.09 28.59 15.34Q28.05 14.58 27.07 14.58L27.07 14.58Q26.11 14.58 25.56 15.33Q25.02 16.09 25.01 17.46L25.01 17.46ZM40.43 22L35.07 22L35.07 13.47L36.55 13.47L36.55 20.82L40.43 20.82L40.43 22ZM49.91 22L44.55 22L44.55 13.47L46.03 13.47L46.03 20.82L49.91 20.82L49.91 22ZM53.76 18.00L53.76 18.00L53.76 17.52Q53.76 16.28 54.20 15.32Q54.65 14.37 55.45 13.86Q56.26 13.35 57.30 13.35Q58.34 13.35 59.15 13.85Q59.96 14.35 60.39 15.29Q60.83 16.23 60.84 17.48L60.84 17.48L60.84 17.96Q60.84 19.21 60.41 20.16Q59.97 21.10 59.17 21.61Q58.36 22.12 57.31 22.12L57.31 22.12Q56.28 22.12 55.46 21.61Q54.65 21.10 54.21 20.17Q53.77 19.23 53.76 18.00ZM55.24 17.46L55.24 17.96Q55.24 19.36 55.79 20.13Q56.34 20.90 57.31 20.90L57.31 20.90Q58.30 20.90 58.83 20.15Q59.36 19.40 59.36 17.96L59.36 17.96L59.36 17.51Q59.36 16.09 58.82 15.34Q58.29 14.58 57.30 14.58L57.30 14.58Q56.34 14.58 55.80 15.33Q55.26 16.09 55.24 17.46L55.24 17.46ZM66.69 22L64.72 13.47L66.19 13.47L67.51 19.88L69.14 13.47L70.39 13.47L72.00 19.89L73.31 13.47L74.78 13.47L72.81 22L71.39 22L69.77 15.77L68.11 22L66.69 22Z" fill="#FFFFFF"/><path class="svg__text" d="M103.13 22L100.75 22L100.75 13.60L107.34 13.60L107.34 15.44L103.13 15.44L103.13 17.28L106.84 17.28L106.84 19.12L103.13 19.12L103.13 22ZM113.35 22L110.93 22L114.63 13.60L116.98 13.60L120.69 22L118.23 22L117.56 20.37L114.01 20.37L113.35 22ZM115.79 15.93L114.70 18.61L116.87 18.61L115.79 15.93ZM124.42 17.80L124.42 17.80Q124.42 16.54 125.02 15.54Q125.62 14.55 126.67 13.99Q127.72 13.43 129.04 13.43L129.04 13.43Q130.19 13.43 131.11 13.84Q132.04 14.25 132.65 15.02L132.65 15.02L131.14 16.39Q130.33 15.40 129.16 15.40L129.16 15.40Q128.47 15.40 127.94 15.70Q127.41 16 127.11 16.54Q126.82 17.09 126.82 17.80L126.82 17.80Q126.82 18.51 127.11 19.05Q127.41 19.60 127.94 19.90Q128.47 20.20 129.16 20.20L129.16 20.20Q130.33 20.20 131.14 19.22L131.14 19.22L132.65 20.58Q132.04 21.35 131.12 21.76Q130.19 22.17 129.04 22.17L129.04 22.17Q127.72 22.17 126.67 21.61Q125.62 21.05 125.02 20.05Q124.42 19.06 124.42 17.80ZM143.93 22L137.19 22L137.19 13.60L143.78 13.60L143.78 15.44L139.54 15.44L139.54 16.85L143.28 16.85L143.28 18.63L139.54 18.63L139.54 20.17L143.93 20.17L143.93 22ZM153.28 22L148.74 22L148.74 13.60L153.04 13.60Q154.64 13.60 155.48 14.19Q156.32 14.79 156.32 15.79L156.32 15.79Q156.32 16.39 156.03 16.87Q155.73 17.34 155.19 17.62L155.19 17.62Q155.91 17.87 156.32 18.41Q156.73 18.94 156.73 19.70L156.73 19.70Q156.73 20.80 155.84 21.40Q154.95 22 153.28 22L153.28 22ZM151.09 18.58L151.09 20.28L153.08 20.28Q154.33 20.28 154.33 19.43L154.33 19.43Q154.33 18.58 153.08 18.58L153.08 18.58L151.09 18.58ZM151.09 15.31L151.09 16.94L152.72 16.94Q153.92 16.94 153.92 16.12L153.92 16.12Q153.92 15.31 152.72 15.31L152.72 15.31L151.09 15.31ZM161.02 17.80L161.02 17.80Q161.02 16.55 161.62 15.55Q162.22 14.56 163.29 14.00Q164.35 13.43 165.68 13.43L165.68 13.43Q167.01 13.43 168.08 14.00Q169.14 14.56 169.74 15.55Q170.35 16.55 170.35 17.80L170.35 17.80Q170.35 19.05 169.74 20.04Q169.14 21.04 168.08 21.60Q167.02 22.17 165.68 22.17L165.68 22.17Q164.35 22.17 163.29 21.60Q162.22 21.04 161.62 20.04Q161.02 19.05 161.02 17.80ZM163.41 17.80L163.41 17.80Q163.41 18.51 163.72 19.05Q164.02 19.60 164.53 19.90Q165.05 20.20 165.68 20.20L165.68 20.20Q166.32 20.20 166.84 19.90Q167.35 19.60 167.65 19.05Q167.95 18.51 167.95 17.80L167.95 17.80Q167.95 17.09 167.65 16.54Q167.35 16 166.84 15.70Q166.32 15.40 165.68 15.40L165.68 15.40Q165.04 15.40 164.53 15.70Q164.02 16 163.72 16.54Q163.41 17.09 163.41 17.80ZM174.65 17.80L174.65 17.80Q174.65 16.55 175.26 15.55Q175.86 14.56 176.92 14.00Q177.99 13.43 179.32 13.43L179.32 13.43Q180.65 13.43 181.71 14.00Q182.77 14.56 183.38 15.55Q183.99 16.55 183.99 17.80L183.99 17.80Q183.99 19.05 183.38 20.04Q182.77 21.04 181.71 21.60Q180.65 22.17 179.32 22.17L179.32 22.17Q177.99 22.17 176.92 21.60Q175.86 21.04 175.26 20.04Q174.65 19.05 174.65 17.80ZM177.05 17.80L177.05 17.80Q177.05 18.51 177.35 19.05Q177.65 19.60 178.17 19.90Q178.68 20.20 179.32 20.20L179.32 20.20Q179.95 20.20 180.47 19.90Q180.99 19.60 181.28 19.05Q181.58 18.51 181.58 17.80L181.58 17.80Q181.58 17.09 181.28 16.54Q180.99 16 180.47 15.70Q179.95 15.40 179.32 15.40L179.32 15.40Q178.68 15.40 178.16 15.70Q177.65 16 177.35 16.54Q177.05 17.09 177.05 17.80ZM191.07 22L188.71 22L188.71 13.60L191.07 13.60L191.07 17.09L194.32 13.60L196.94 13.60L193.51 17.32L197.12 22L194.36 22L191.95 18.95L191.07 19.90L191.07 22Z" fill="#FFFFFF" x="99.56"/></svg>