<svg xmlns="http://www.w3.org/2000/svg" width="216.3" height="35" viewBox="0 0 216.3 35"><rect class="svg__rect" x="0" y="0" width="88.56" height="35" fill="#FF3C84"/><rect class="svg__rect" x="86.56" y="0" width="129.74" height="35" fill="#E93276"/><path class="svg__text" d="M15.70 22L14.22 22L14.22 13.47L19.64 13.47L19.64 14.66L15.70 14.66L15.70 17.20L19.13 17.20L19.13 18.38L15.70 18.38L15.70 22ZM23.53 18.00L23.53 18.00L23.53 17.52Q23.53 16.28 23.97 15.32Q24.41 14.37 25.22 13.86Q26.02 13.35 27.07 13.35Q28.11 13.35 28.92 13.85Q29.72 14.35 30.16 15.29Q30.60 16.23 30.61 17.48L30.61 17.48L30.61 17.96Q30.61 19.21 30.17 20.16Q29.74 21.10 28.93 21.61Q28.13 22.12 27.08 22.12L27.08 22.12Q26.04 22.12 25.23 21.61Q24.42 21.10 23.98 20.17Q23.53 19.23 23.53 18.00ZM25.01 17.46L25.01 17.96Q25.01 19.36 25.56 20.13Q26.11 20.90 27.08 20.90L27.08 20.90Q28.06 20.90 28.59 20.15Q29.12 19.40 29.12 17.96L29.12 17.96L29.12 17.51Q29.12 16.09 28.59 15.34Q28.05 14.58 27.07 14.58L27.07 14.58Q26.11 14.58 25.56 15.33Q25.02 16.09 25.01 17.46L25.01 17.46ZM40.43 22L35.07 22L35.07 13.47L36.55 13.47L36.55 20.82L40.43 20.82L40.43 22ZM49.91 22L44.55 22L44.55 13.47L46.03 13.47L46.03 20.82L49.91 20.82L49.91 22ZM53.76 18.00L53.76 18.00L53.76 17.52Q53.76 16.28 54.20 15.32Q54.65 14.37 55.45 13.86Q56.26 13.35 57.30 13.35Q58.34 13.35 59.15 13.85Q59.96 14.35 60.39 15.29Q60.83 16.23 60.84 17.48L60.84 17.48L60.84 17.96Q60.84 19.21 60.41 20.16Q59.97 21.10 59.17 21.61Q58.36 22.12 57.31 22.12L57.31 22.12Q56.28 22.12 55.46 21.61Q54.65 21.10 54.21 20.17Q53.77 19.23 53.76 18.00ZM55.24 17.46L55.24 17.96Q55.24 19.36 55.79 20.13Q56.34 20.90 57.31 20.90L57.31 20.90Q58.30 20.90 58.83 20.15Q59.36 19.40 59.36 17.96L59.36 17.96L59.36 17.51Q59.36 16.09 58.82 15.34Q58.29 14.58 57.30 14.58L57.30 14.58Q56.34 14.58 55.80 15.33Q55.26 16.09 55.24 17.46L55.24 17.46ZM66.69 22L64.72 13.47L66.19 13.47L67.51 19.88L69.14 13.47L70.39 13.47L72.00 19.89L73.31 13.47L74.78 13.47L72.81 22L71.39 22L69.77 15.77L68.11 22L66.69 22Z" fill="#FFFFFF"/><path class="svg__text" d="M103.13 22L100.75 22L100.75 13.60L103.13 13.60L103.13 22ZM110.63 22L108.30 22L108.30 13.60L110.26 13.60L113.97 18.07L113.97 13.60L116.29 13.60L116.29 22L114.34 22L110.63 17.52L110.63 22ZM120.87 21.24L120.87 21.24L121.65 19.49Q122.21 19.86 122.95 20.09Q123.70 20.32 124.42 20.32L124.42 20.32Q125.78 20.32 125.79 19.64L125.79 19.64Q125.79 19.28 125.40 19.11Q125.01 18.93 124.14 18.74L124.14 18.74Q123.20 18.53 122.56 18.30Q121.92 18.06 121.47 17.55Q121.02 17.03 121.02 16.16L121.02 16.16Q121.02 15.39 121.43 14.77Q121.85 14.15 122.69 13.79Q123.52 13.43 124.73 13.43L124.73 13.43Q125.56 13.43 126.36 13.62Q127.17 13.80 127.78 14.17L127.78 14.17L127.05 15.93Q125.85 15.28 124.72 15.28L124.72 15.28Q124.01 15.28 123.69 15.49Q123.37 15.70 123.37 16.04L123.37 16.04Q123.37 16.37 123.75 16.54Q124.13 16.71 124.98 16.89L124.98 16.89Q125.94 17.10 126.57 17.33Q127.20 17.56 127.67 18.07Q128.13 18.58 128.13 19.46L128.13 19.46Q128.13 20.21 127.71 20.83Q127.29 21.44 126.45 21.80Q125.61 22.17 124.41 22.17L124.41 22.17Q123.39 22.17 122.43 21.92Q121.47 21.67 120.87 21.24ZM134.50 15.48L131.91 15.48L131.91 13.60L139.44 13.60L139.44 15.48L136.87 15.48L136.87 22L134.50 22L134.50 15.48ZM145.23 22L142.80 22L146.51 13.60L148.85 13.60L152.57 22L150.10 22L149.44 20.37L145.89 20.37L145.23 22ZM147.66 15.93L146.58 18.61L148.74 18.61L147.66 15.93ZM156.29 17.80L156.29 17.80Q156.29 16.54 156.89 15.54Q157.49 14.55 158.56 13.99Q159.63 13.43 160.97 13.43L160.97 13.43Q162.15 13.43 163.09 13.83Q164.02 14.22 164.64 14.97L164.64 14.97L163.13 16.33Q162.29 15.40 161.11 15.40L161.11 15.40Q161.10 15.40 161.09 15.40L161.09 15.40Q160.02 15.40 159.35 16.06Q158.69 16.71 158.69 17.80L158.69 17.80Q158.69 18.50 158.99 19.04Q159.29 19.59 159.83 19.89Q160.37 20.20 161.07 20.20L161.07 20.20Q161.76 20.20 162.35 19.93L162.35 19.93L162.35 17.62L164.45 17.62L164.45 21.10Q163.73 21.61 162.80 21.89Q161.86 22.17 160.92 22.17L160.92 22.17Q159.61 22.17 158.55 21.61Q157.49 21.05 156.89 20.05Q156.29 19.06 156.29 17.80ZM171.82 22L169.44 22L169.44 13.60L173.29 13.60Q174.43 13.60 175.27 13.98Q176.11 14.35 176.56 15.06Q177.02 15.76 177.02 16.71L177.02 16.71Q177.02 17.62 176.59 18.30Q176.16 18.98 175.37 19.36L175.37 19.36L177.18 22L174.64 22L173.12 19.77L171.82 19.77L171.82 22ZM171.82 15.47L171.82 17.93L173.14 17.93Q173.87 17.93 174.24 17.61Q174.62 17.29 174.62 16.71L174.62 16.71Q174.62 16.12 174.24 15.79Q173.87 15.47 173.14 15.47L173.14 15.47L171.82 15.47ZM183.22 22L180.80 22L184.51 13.60L186.85 13.60L190.57 22L188.10 22L187.44 20.37L183.89 20.37L183.22 22ZM185.66 15.93L184.58 18.61L186.74 18.61L185.66 15.93ZM196.92 22L194.72 22L194.72 13.60L196.68 13.60L199.63 18.45L202.51 13.60L204.46 13.60L204.49 22L202.31 22L202.28 17.55L200.12 21.17L199.07 21.17L196.92 17.67L196.92 22Z" fill="#FFFFFF" x="99.56"/></svg>