<svg xmlns="http://www.w3.org/2000/svg" width="197.07" height="35" viewBox="0 0 197.07 35"><rect class="svg__rect" x="0" y="0" width="88.56" height="35" fill="#0A66C2"/><rect class="svg__rect" x="86.56" y="0" width="110.50999999999999" height="35" fill="#0358AC"/><path class="svg__text" d="M15.70 22L14.22 22L14.22 13.47L19.64 13.47L19.64 14.66L15.70 14.66L15.70 17.20L19.13 17.20L19.13 18.38L15.70 18.38L15.70 22ZM23.53 18.00L23.53 18.00L23.53 17.52Q23.53 16.28 23.97 15.32Q24.41 14.37 25.22 13.86Q26.02 13.35 27.07 13.35Q28.11 13.35 28.92 13.85Q29.72 14.35 30.16 15.29Q30.60 16.23 30.61 17.48L30.61 17.48L30.61 17.96Q30.61 19.21 30.17 20.16Q29.74 21.10 28.93 21.61Q28.13 22.12 27.08 22.12L27.08 22.12Q26.04 22.12 25.23 21.61Q24.42 21.10 23.98 20.17Q23.53 19.23 23.53 18.00ZM25.01 17.46L25.01 17.96Q25.01 19.36 25.56 20.13Q26.11 20.90 27.08 20.90L27.08 20.90Q28.06 20.90 28.59 20.15Q29.12 19.40 29.12 17.96L29.12 17.96L29.12 17.51Q29.12 16.09 28.59 15.34Q28.05 14.58 27.07 14.58L27.07 14.58Q26.11 14.58 25.56 15.33Q25.02 16.09 25.01 17.46L25.01 17.46ZM40.43 22L35.07 22L35.07 13.47L36.55 13.47L36.55 20.82L40.43 20.82L40.43 22ZM49.91 22L44.55 22L44.55 13.47L46.03 13.47L46.03 20.82L49.91 20.82L49.91 22ZM53.76 18.00L53.76 18.00L53.76 17.52Q53.76 16.28 54.20 15.32Q54.65 14.37 55.45 13.86Q56.26 13.35 57.30 13.35Q58.34 13.35 59.15 13.85Q59.96 14.35 60.39 15.29Q60.83 16.23 60.84 17.48L60.84 17.48L60.84 17.96Q60.84 19.21 60.41 20.16Q59.97 21.10 59.17 21.61Q58.36 22.12 57.31 22.12L57.31 22.12Q56.28 22.12 55.46 21.61Q54.65 21.10 54.21 20.17Q53.77 19.23 53.76 18.00ZM55.24 17.46L55.24 17.96Q55.24 19.36 55.79 20.13Q56.34 20.90 57.31 20.90L57.31 20.90Q58.30 20.90 58.83 20.15Q59.36 19.40 59.36 17.96L59.36 17.96L59.36 17.51Q59.36 16.09 58.82 15.34Q58.29 14.58 57.30 14.58L57.30 14.58Q56.34 14.58 55.80 15.33Q55.26 16.09 55.24 17.46L55.24 17.46ZM66.69 22L64.72 13.47L66.19 13.47L67.51 19.88L69.14 13.47L70.39 13.47L72.00 19.89L73.31 13.47L74.78 13.47L72.81 22L71.39 22L69.77 15.77L68.11 22L66.69 22Z" fill="#FFFFFF"/><path class="svg__text" d="M107.13 22L100.75 22L100.75 13.60L103.13 13.60L103.13 20.11L107.13 20.11L107.13 22ZM113.93 22L111.55 22L111.55 13.60L113.93 13.60L113.93 22ZM121.44 22L119.11 22L119.11 13.60L121.06 13.60L124.77 18.07L124.77 13.60L127.10 13.60L127.10 22L125.15 22L121.44 17.52L121.44 22ZM134.62 22L132.26 22L132.26 13.60L134.62 13.60L134.62 17.09L137.87 13.60L140.48 13.60L137.05 17.32L140.66 22L137.90 22L135.50 18.95L134.62 19.90L134.62 22ZM151.51 22L144.77 22L144.77 13.60L151.36 13.60L151.36 15.44L147.12 15.44L147.12 16.85L150.86 16.85L150.86 18.63L147.12 18.63L147.12 20.17L151.51 20.17L151.51 22ZM160.29 22L156.32 22L156.32 13.60L160.29 13.60Q161.67 13.60 162.74 14.12Q163.81 14.63 164.40 15.58Q164.98 16.53 164.98 17.80L164.98 17.80Q164.98 19.07 164.40 20.02Q163.81 20.97 162.74 21.48Q161.67 22 160.29 22L160.29 22ZM158.70 15.50L158.70 20.10L160.20 20.10Q161.28 20.10 161.93 19.49Q162.58 18.88 162.58 17.80L162.58 17.80Q162.58 16.72 161.93 16.11Q161.28 15.50 160.20 15.50L160.20 15.50L158.70 15.50ZM172.09 22L169.71 22L169.71 13.60L172.09 13.60L172.09 22ZM179.60 22L177.27 22L177.27 13.60L179.22 13.60L182.93 18.07L182.93 13.60L185.26 13.60L185.26 22L183.31 22L179.60 17.52L179.60 22Z" fill="#FFFFFF" x="99.56"/></svg>