<svg xmlns="http://www.w3.org/2000/svg" width="191.19" height="35" viewBox="0 0 191.19 35"><rect class="svg__rect" x="0" y="0" width="88.56" height="35" fill="#1DA1F2"/><rect class="svg__rect" x="86.56" y="0" width="104.63000000000001" height="35" fill="#1B92DC"/><path class="svg__text" d="M15.70 22L14.22 22L14.22 13.47L19.64 13.47L19.64 14.66L15.70 14.66L15.70 17.20L19.13 17.20L19.13 18.38L15.70 18.38L15.70 22ZM23.53 18.00L23.53 18.00L23.53 17.52Q23.53 16.28 23.97 15.32Q24.41 14.37 25.22 13.86Q26.02 13.35 27.07 13.35Q28.11 13.35 28.92 13.85Q29.72 14.35 30.16 15.29Q30.60 16.23 30.61 17.48L30.61 17.48L30.61 17.96Q30.61 19.21 30.17 20.16Q29.74 21.10 28.93 21.61Q28.13 22.12 27.08 22.12L27.08 22.12Q26.04 22.12 25.23 21.61Q24.42 21.10 23.98 20.17Q23.53 19.23 23.53 18.00ZM25.01 17.46L25.01 17.96Q25.01 19.36 25.56 20.13Q26.11 20.90 27.08 20.90L27.08 20.90Q28.06 20.90 28.59 20.15Q29.12 19.40 29.12 17.96L29.12 17.96L29.12 17.51Q29.12 16.09 28.59 15.34Q28.05 14.58 27.07 14.58L27.07 14.58Q26.11 14.58 25.56 15.33Q25.02 16.09 25.01 17.46L25.01 17.46ZM40.43 22L35.07 22L35.07 13.47L36.55 13.47L36.55 20.82L40.43 20.82L40.43 22ZM49.91 22L44.55 22L44.55 13.47L46.03 13.47L46.03 20.82L49.91 20.82L49.91 22ZM53.76 18.00L53.76 18.00L53.76 17.52Q53.76 16.28 54.20 15.32Q54.65 14.37 55.45 13.86Q56.26 13.35 57.30 13.35Q58.34 13.35 59.15 13.85Q59.96 14.35 60.39 15.29Q60.83 16.23 60.84 17.48L60.84 17.48L60.84 17.96Q60.84 19.21 60.41 20.16Q59.97 21.10 59.17 21.61Q58.36 22.12 57.31 22.12L57.31 22.12Q56.28 22.12 55.46 21.61Q54.65 21.10 54.21 20.17Q53.77 19.23 53.76 18.00ZM55.24 17.46L55.24 17.96Q55.24 19.36 55.79 20.13Q56.34 20.90 57.31 20.90L57.31 20.90Q58.30 20.90 58.83 20.15Q59.36 19.40 59.36 17.96L59.36 17.96L59.36 17.51Q59.36 16.09 58.82 15.34Q58.29 14.58 57.30 14.58L57.30 14.58Q56.34 14.58 55.80 15.33Q55.26 16.09 55.24 17.46L55.24 17.46ZM66.69 22L64.72 13.47L66.19 13.47L67.51 19.88L69.14 13.47L70.39 13.47L72.00 19.89L73.31 13.47L74.78 13.47L72.81 22L71.39 22L69.77 15.77L68.11 22L66.69 22Z" fill="#FFFFFF"/><path class="svg__text" d="M102.54 15.48L99.96 15.48L99.96 13.60L107.48 13.60L107.48 15.48L104.91 15.48L104.91 22L102.54 22L102.54 15.48ZM113.93 22L111.21 13.60L113.66 13.60L115.34 18.96L117.12 13.60L119.30 13.60L121.00 19.01L122.76 13.60L125.03 13.60L122.30 22L119.76 22L118.16 16.89L116.47 22L113.93 22ZM131.92 22L129.54 22L129.54 13.60L131.92 13.60L131.92 22ZM138.89 15.48L136.30 15.48L136.30 13.60L143.83 13.60L143.83 15.48L141.26 15.48L141.26 22L138.89 22L138.89 15.48ZM149.99 15.48L147.41 15.48L147.41 13.60L154.93 13.60L154.93 15.48L152.36 15.48L152.36 22L149.99 22L149.99 15.48ZM166.04 22L159.30 22L159.30 13.60L165.89 13.60L165.89 15.44L161.66 15.44L161.66 16.85L165.39 16.85L165.39 18.63L161.66 18.63L161.66 20.17L166.04 20.17L166.04 22ZM173.23 22L170.85 22L170.85 13.60L174.69 13.60Q175.84 13.60 176.67 13.98Q177.51 14.35 177.97 15.06Q178.43 15.76 178.43 16.71L178.43 16.71Q178.43 17.62 178.00 18.30Q177.57 18.98 176.78 19.36L176.78 19.36L178.59 22L176.05 22L174.52 19.77L173.23 19.77L173.23 22ZM173.23 15.47L173.23 17.93L174.55 17.93Q175.28 17.93 175.65 17.61Q176.02 17.29 176.02 16.71L176.02 16.71Q176.02 16.12 175.65 15.79Q175.28 15.47 174.55 15.47L174.55 15.47L173.23 15.47Z" fill="#FFFFFF" x="99.56"/></svg>