<svg xmlns="http://www.w3.org/2000/svg" width="195.45999999999998" height="35" viewBox="0 0 195.45999999999998 35"><rect class="svg__rect" x="0" y="0" width="88.56" height="35" fill="#F51E1D"/><rect class="svg__rect" x="86.56" y="0" width="108.89999999999999" height="35" fill="#DF1817"/><path class="svg__text" d="M15.70 22L14.22 22L14.22 13.47L19.64 13.47L19.64 14.66L15.70 14.66L15.70 17.20L19.13 17.20L19.13 18.38L15.70 18.38L15.70 22ZM23.53 18.00L23.53 18.00L23.53 17.52Q23.53 16.28 23.97 15.32Q24.41 14.37 25.22 13.86Q26.02 13.35 27.07 13.35Q28.11 13.35 28.92 13.85Q29.72 14.35 30.16 15.29Q30.60 16.23 30.61 17.48L30.61 17.48L30.61 17.96Q30.61 19.21 30.17 20.16Q29.74 21.10 28.93 21.61Q28.13 22.12 27.08 22.12L27.08 22.12Q26.04 22.12 25.23 21.61Q24.42 21.10 23.98 20.17Q23.53 19.23 23.53 18.00ZM25.01 17.46L25.01 17.96Q25.01 19.36 25.56 20.13Q26.11 20.90 27.08 20.90L27.08 20.90Q28.06 20.90 28.59 20.15Q29.12 19.40 29.12 17.96L29.12 17.96L29.12 17.51Q29.12 16.09 28.59 15.34Q28.05 14.58 27.07 14.58L27.07 14.58Q26.11 14.58 25.56 15.33Q25.02 16.09 25.01 17.46L25.01 17.46ZM40.43 22L35.07 22L35.07 13.47L36.55 13.47L36.55 20.82L40.43 20.82L40.43 22ZM49.91 22L44.55 22L44.55 13.47L46.03 13.47L46.03 20.82L49.91 20.82L49.91 22ZM53.76 18.00L53.76 18.00L53.76 17.52Q53.76 16.28 54.20 15.32Q54.65 14.37 55.45 13.86Q56.26 13.35 57.30 13.35Q58.34 13.35 59.15 13.85Q59.96 14.35 60.39 15.29Q60.83 16.23 60.84 17.48L60.84 17.48L60.84 17.96Q60.84 19.21 60.41 20.16Q59.97 21.10 59.17 21.61Q58.36 22.12 57.31 22.12L57.31 22.12Q56.28 22.12 55.46 21.61Q54.65 21.10 54.21 20.17Q53.77 19.23 53.76 18.00ZM55.24 17.46L55.24 17.96Q55.24 19.36 55.79 20.13Q56.34 20.90 57.31 20.90L57.31 20.90Q58.30 20.90 58.83 20.15Q59.36 19.40 59.36 17.96L59.36 17.96L59.36 17.51Q59.36 16.09 58.82 15.34Q58.29 14.58 57.30 14.58L57.30 14.58Q56.34 14.58 55.80 15.33Q55.26 16.09 55.24 17.46L55.24 17.46ZM66.69 22L64.72 13.47L66.19 13.47L67.51 19.88L69.14 13.47L70.39 13.47L72.00 19.89L73.31 13.47L74.78 13.47L72.81 22L71.39 22L69.77 15.77L68.11 22L66.69 22Z" fill="#FFFFFF"/><path class="svg__text" d="M102.87 18.95L99.67 13.60L102.18 13.60L104.17 16.94L106.16 13.60L108.46 13.60L105.25 18.99L105.25 22L102.87 22L102.87 18.95ZM112.12 17.80L112.12 17.80Q112.12 16.55 112.72 15.55Q113.33 14.56 114.39 14.00Q115.45 13.43 116.78 13.43L116.78 13.43Q118.12 13.43 119.18 14.00Q120.24 14.56 120.85 15.55Q121.45 16.55 121.45 17.80L121.45 17.80Q121.45 19.05 120.85 20.04Q120.24 21.04 119.18 21.60Q118.12 22.17 116.78 22.17L116.78 22.17Q115.45 22.17 114.39 21.60Q113.33 21.04 112.72 20.04Q112.12 19.05 112.12 17.80ZM114.52 17.80L114.52 17.80Q114.52 18.51 114.82 19.05Q115.12 19.60 115.64 19.90Q116.15 20.20 116.78 20.20L116.78 20.20Q117.42 20.20 117.94 19.90Q118.45 19.60 118.75 19.05Q119.05 18.51 119.05 17.80L119.05 17.80Q119.05 17.09 118.75 16.54Q118.45 16 117.94 15.70Q117.42 15.40 116.78 15.40L116.78 15.40Q116.15 15.40 115.63 15.70Q115.12 16 114.82 16.54Q114.52 17.09 114.52 17.80ZM126.11 18.26L126.11 18.26L126.11 13.60L128.49 13.60L128.49 18.19Q128.49 20.20 130.09 20.20L130.09 20.20Q131.67 20.20 131.67 18.19L131.67 18.19L131.67 13.60L134.01 13.60L134.01 18.26Q134.01 20.13 132.97 21.15Q131.93 22.17 130.06 22.17L130.06 22.17Q128.19 22.17 127.15 21.15Q126.11 20.13 126.11 18.26ZM140.89 15.48L138.31 15.48L138.31 13.60L145.83 13.60L145.83 15.48L143.26 15.48L143.26 22L140.89 22L140.89 15.48ZM150.13 18.26L150.13 18.26L150.13 13.60L152.51 13.60L152.51 18.19Q152.51 20.20 154.10 20.20L154.10 20.20Q155.69 20.20 155.69 18.19L155.69 18.19L155.69 13.60L158.03 13.60L158.03 18.26Q158.03 20.13 156.99 21.15Q155.95 22.17 154.08 22.17L154.08 22.17Q152.20 22.17 151.17 21.15Q150.13 20.13 150.13 18.26ZM167.66 22L163.12 22L163.12 13.60L167.42 13.60Q169.02 13.60 169.86 14.19Q170.70 14.79 170.70 15.79L170.70 15.79Q170.70 16.39 170.41 16.87Q170.11 17.34 169.57 17.62L169.57 17.62Q170.29 17.87 170.70 18.41Q171.11 18.94 171.11 19.70L171.11 19.70Q171.11 20.80 170.22 21.40Q169.33 22 167.66 22L167.66 22ZM165.47 18.58L165.47 20.28L167.46 20.28Q168.71 20.28 168.71 19.43L168.71 19.43Q168.71 18.58 167.46 18.58L167.46 18.58L165.47 18.58ZM165.47 15.31L165.47 16.94L167.10 16.94Q168.30 16.94 168.30 16.12L168.30 16.12Q168.30 15.31 167.10 15.31L167.10 15.31L165.47 15.31ZM182.57 22L175.82 22L175.82 13.60L182.42 13.60L182.42 15.44L178.18 15.44L178.18 16.85L181.91 16.85L181.91 18.63L178.18 18.63L178.18 20.17L182.57 20.17L182.57 22Z" fill="#FFFFFF" x="99.56"/></svg>